<svg xmlns="http://www.w3.org/2000/svg" width="47" height="47" viewBox="0 0 47 47" fill="none">
  <path d="M10.293 0H36.707C42.3917 0 47 4.60832 47 10.293V36.707C47 42.3917 42.3917 47 36.707 47H10.293C4.60832 47 0 42.3917 0 36.707V10.293C0 4.60832 4.60832 0 10.293 0Z" fill="url(#paint0_linear_348_888)"/>
  <path d="M15.0622 34.1137L15.0666 34.1151L13.4597 36.8983C12.8732 37.9143 11.574 38.2624 10.558 37.6758C9.54208 37.0893 9.19397 35.7901 9.78052 34.7742L10.9643 32.7238L11.0779 32.5271C11.2808 32.2354 11.7815 31.7322 12.783 31.8267C12.783 31.8267 15.1397 32.0825 15.3102 33.3074C15.3103 33.3074 15.3335 33.7105 15.0622 34.1137ZM37.8542 27.0047H32.8431C32.5019 26.9819 32.3528 26.86 32.2944 26.7892L32.2906 26.7827L26.9265 17.4917L26.9195 17.4964L26.5978 17.0351C26.0706 16.2289 25.2334 18.291 25.2334 18.291C24.2338 20.5888 25.3752 23.2012 25.7732 23.9908L33.2237 36.8955C33.8102 37.9114 35.1094 38.2595 36.1254 37.6729C37.1413 37.0864 37.4894 35.7872 36.9029 34.7713L35.0398 31.5444C35.0037 31.4662 34.9409 31.2539 35.323 31.2531H37.8542C39.0273 31.2531 39.9784 30.302 39.9784 29.1289C39.9784 27.9558 39.0273 27.0047 37.8542 27.0047ZM28.1211 29.8925C28.1211 29.8925 28.3886 31.253 27.3536 31.253H26.3187L8.82925 31.2531C7.65611 31.2531 6.70508 30.302 6.70508 29.1289C6.70508 27.9558 7.65611 27.0047 8.82925 27.0047H13.5917C14.3606 26.9602 14.5428 26.5163 14.5428 26.5163L14.547 26.5185L20.7636 15.751L20.7617 15.7507C20.8751 15.5426 20.7807 15.3461 20.7643 15.315L18.7113 11.7591C18.1247 10.7432 18.4728 9.44401 19.4888 8.85746C20.5047 8.27087 21.8038 8.61898 22.3904 9.63495L23.3426 11.2842L24.2931 9.63788C24.8796 8.62191 26.1787 8.2738 27.1947 8.86039C28.2107 9.44698 28.5588 10.7461 27.9722 11.7621L19.3217 26.7451C19.2839 26.8363 19.2723 26.9795 19.5537 27.0047H24.7245L24.7256 27.0551C24.7256 27.0551 27.7141 27.1016 28.1211 29.8925Z" fill="white"/>
  <defs>
    <linearGradient id="paint0_linear_348_888" x1="6016" y1="0" x2="6016" y2="12032" gradientUnits="userSpaceOnUse">
      <stop stop-color="#17C9FB"/>
      <stop offset="1" stop-color="#1A74E8"/>
    </linearGradient>
  </defs>
</svg>