<svg width="16" height="15" viewBox="0 0 16 15" fill="none" xmlns="http://www.w3.org/2000/svg">
<path fill-rule="evenodd" clip-rule="evenodd" d="M4.6264 0.045C5.41814 0.00833181 5.67051 0 7.68657 0C9.70301 0 9.95498 0.00874772 10.7463 0.045C11.5368 0.0812523 12.0766 0.208336 12.5488 0.39375C13.044 0.582143 13.4926 0.877323 13.8634 1.25875C14.2409 1.63336 14.5331 2.08668 14.7195 2.58708C14.9029 3.06417 15.0283 3.60959 15.0646 4.40791C15.1009 5.20792 15.1092 5.46292 15.1092 7.5C15.1092 9.53707 15.1005 9.79207 15.0646 10.5921C15.0287 11.3904 14.9029 11.9358 14.7195 12.4129C14.5298 12.9059 14.2757 13.3246 13.8634 13.7412C13.4927 14.1227 13.044 14.4179 12.5488 14.6063C12.0766 14.7916 11.5368 14.9183 10.7468 14.955C9.95498 14.9917 9.70261 15 7.68657 15C5.67051 15 5.41814 14.9913 4.6264 14.955C3.83631 14.9187 3.29652 14.7916 2.82436 14.6063C2.33653 14.4146 1.9221 14.1579 1.50974 13.7412C1.13218 13.3666 0.840024 12.9133 0.653663 12.4129C0.470163 11.9358 0.344802 11.3904 0.308513 10.5921C0.272223 9.79207 0.263977 9.53748 0.263977 7.5C0.263977 5.4625 0.272634 5.20792 0.308513 4.40834C0.344391 3.60959 0.470163 3.06417 0.653663 2.58708C0.840112 2.08671 1.13224 1.63342 1.50974 1.25875C1.88048 0.877255 2.32911 0.582055 2.82436 0.39375C3.29652 0.208336 3.83631 0.0816682 4.6264 0.045ZM10.6861 1.395C9.90342 1.35916 9.6684 1.35125 7.68657 1.35125C5.70474 1.35125 5.46969 1.35916 4.68702 1.395C3.96331 1.42833 3.57033 1.55041 3.30889 1.65333C2.9625 1.78917 2.71508 1.95166 2.45529 2.21416C2.19592 2.47666 2.03468 2.72667 1.90025 3.07666C1.79839 3.34083 1.67757 3.73792 1.64458 4.46917C1.60911 5.26 1.60128 5.4975 1.60128 7.5C1.60128 9.5025 1.60911 9.73998 1.64458 10.5308C1.67757 11.2621 1.79839 11.6592 1.90025 11.9234C2.01916 12.2491 2.20882 12.5438 2.45529 12.7859C2.69477 13.0349 2.98645 13.2265 3.30889 13.3467C3.57033 13.4496 3.96331 13.5717 4.68702 13.605C5.46969 13.6409 5.70432 13.6488 7.68657 13.6488C9.6688 13.6488 9.90342 13.6409 10.6861 13.605C11.4098 13.5717 11.8028 13.4496 12.0643 13.3467C12.4106 13.2108 12.6581 13.0484 12.9179 12.7859C13.1643 12.5439 13.354 12.2491 13.4729 11.9234C13.5748 11.6592 13.6956 11.2621 13.7286 10.5308C13.764 9.73998 13.7719 9.5025 13.7719 7.5C13.7719 5.4975 13.764 5.26 13.7286 4.46917C13.6956 3.73792 13.5748 3.34083 13.4729 3.07666C13.3385 2.72667 13.1777 2.47666 12.9179 2.21416C12.6581 1.95209 12.4106 1.78917 12.0643 1.65333C11.8028 1.55041 11.4098 1.42833 10.6861 1.395ZM6.73884 9.81198C7.03932 9.93777 7.36132 10.0025 7.68657 10.0025C8.34347 10.0025 8.97337 9.73882 9.43783 9.26952C9.90234 8.80023 10.1633 8.16368 10.1633 7.5C10.1633 6.83632 9.90234 6.19977 9.43783 5.73046C8.97337 5.26115 8.34347 4.9975 7.68657 4.9975C7.36132 4.9975 7.03932 5.06223 6.73884 5.18799C6.43829 5.31375 6.16529 5.49808 5.93531 5.73046C5.70534 5.96284 5.5229 6.2387 5.39844 6.54232C5.27398 6.84593 5.20992 7.17136 5.20992 7.5C5.20992 7.82864 5.27398 8.15407 5.39844 8.45768C5.5229 8.7613 5.70534 9.03716 5.93531 9.26952C6.16529 9.50189 6.43829 9.68625 6.73884 9.81198ZM4.98883 4.7741C5.70432 4.05115 6.67473 3.64499 7.68657 3.64499C8.69847 3.64499 9.66887 4.05115 10.3843 4.7741C11.0998 5.49705 11.5018 6.47761 11.5018 7.5C11.5018 8.52239 11.0998 9.50291 10.3843 10.2259C9.66887 10.9488 8.69847 11.355 7.68657 11.355C6.67473 11.355 5.70432 10.9488 4.98883 10.2259C4.27334 9.50291 3.87138 8.52239 3.87138 7.5C3.87138 6.47761 4.27334 5.49705 4.98883 4.7741ZM12.3478 4.21935C12.5169 4.04845 12.6119 3.81668 12.6119 3.575C12.6119 3.33331 12.5169 3.10154 12.3478 2.93065C12.1786 2.75975 11.9492 2.66375 11.71 2.66375C11.4709 2.66375 11.2414 2.75975 11.0723 2.93065C10.9032 3.10154 10.8082 3.33331 10.8082 3.575C10.8082 3.81668 10.9032 4.04845 11.0723 4.21935C11.2414 4.39024 11.4709 4.48625 11.71 4.48625C11.9492 4.48625 12.1786 4.39024 12.3478 4.21935Z" fill="#F2DFD2"/>
</svg>
