<svg xmlns="http://www.w3.org/2000/svg" width="44" height="47" viewBox="0 0 44 47" fill="none">
  <path d="M32.4471 30.7393C38.0251 27.6765 42.254 25.3426 42.6184 25.1613C43.7845 24.5411 44.9886 22.9 42.6184 21.6251C41.8532 21.2244 37.7331 18.9631 32.4471 16.0471L25.1191 23.4476L32.4471 30.7393Z" fill="#FFD900"/>
  <path d="M25.1191 23.4475L1.78613 46.9637C2.33378 47.0362 2.95215 46.8911 3.68114 46.4904C5.21165 45.6526 21.4361 36.7923 32.4471 30.741L25.1191 23.4475Z" fill="#F43249"/>
  <path d="M25.1193 23.4476L32.4472 16.0833C32.4472 16.0833 5.3224 1.28056 3.68127 0.406505C3.0629 0.0401986 2.37018 -0.0686053 1.75 0.0401986L25.1193 23.4476Z" fill="#00EE76"/>
  <path d="M25.1192 23.4476L1.74993 0.0402832C0.801523 0.259705 0 1.0975 0 2.81116V44.1929C0 45.7615 0.620183 46.8913 1.7862 47.0001L25.1192 23.4476Z" fill="#00D3FF"/>
</svg>