<svg width="19" height="15" viewBox="0 0 19 15" fill="none" xmlns="http://www.w3.org/2000/svg">
<path d="M18.2292 1.7872C17.5574 2.08478 16.8382 2.2895 16.0803 2.38235C16.8536 1.91349 17.4449 1.17186 17.7269 0.288351C17.0015 0.71511 16.199 1.02422 15.3457 1.19896C14.6654 0.463091 13.6928 0 12.6136 0C10.5446 0 8.86773 1.69377 8.86773 3.78143C8.86773 4.08189 8.90368 4.37024 8.9659 4.6436C5.8536 4.49654 3.0946 2.98558 1.24937 0.702999C0.925184 1.25894 0.740832 1.90484 0.740832 2.60784C0.740832 3.9233 1.40347 5.0767 2.40514 5.7549C1.79272 5.73702 1.21627 5.56574 0.711153 5.28374V5.3293C0.711153 7.16378 2.00105 8.6932 3.71329 9.04152C3.40109 9.12515 3.06778 9.17359 2.72932 9.17359C2.48904 9.17359 2.2596 9.14994 2.03072 9.10727C2.51244 10.609 3.89137 11.7024 5.53512 11.7353C4.25722 12.7474 2.63743 13.3506 0.892081 13.3506C0.59472 13.3506 0.297931 13.3362 0 13.2999C1.66487 14.3725 3.62996 15 5.75258 15C12.6398 15 16.4033 9.23587 16.4033 4.24394C16.4033 4.08478 16.4033 3.92272 16.3913 3.76009C17.1259 3.23126 17.7617 2.56113 18.264 1.80161L18.2292 1.7872Z" fill="#F2DFD2"/>
</svg>
