<svg width="103" height="72" viewBox="0 0 103 72" fill="none" xmlns="http://www.w3.org/2000/svg">
<path fill-rule="evenodd" clip-rule="evenodd" d="M17.7939 15.7561C17.4241 15.2454 17.0187 14.939 16.583 14.901C15.9537 14.8462 15.343 15.3213 15.0676 16.0187C14.817 16.6537 14.8918 17.2142 15.1706 17.8087C15.5592 18.6377 16.327 19.5318 17.0196 20.3154L17.7939 15.7561V15.7561Z" fill="#FE316D"/>
<path fill-rule="evenodd" clip-rule="evenodd" d="M18.6339 14.0796C17.9852 14.9246 17.308 15.7357 16.6653 16.572C15.6172 17.9354 15.7081 18.8339 17.5165 20.9721C18.2685 19.3566 20.7284 18.2364 20.0309 16.1256C19.756 15.2955 19.1028 14.7615 18.6339 14.0796H18.6339Z" fill="#DCF2F1"/>
<path fill-rule="evenodd" clip-rule="evenodd" d="M18.6339 14.0796C17.9852 14.9246 17.308 15.7357 16.6653 16.572C15.8067 17.689 15.7125 18.4938 16.7004 19.9236C17.3811 17.296 19.7371 16.9183 19.0553 14.8553C18.9914 14.6625 18.9071 14.4856 18.8095 14.3191C18.7489 14.2408 18.6901 14.1612 18.6339 14.0796Z" fill="url(#paint0_linear_169_82)"/>
<path fill-rule="evenodd" clip-rule="evenodd" d="M102.431 29.9084C102.644 30.0099 102.791 30.1876 102.87 30.4415C102.95 30.6954 102.95 30.9579 102.87 31.2287C102.87 31.2287 102.764 31.5757 102.551 32.2695C102.338 32.9637 102.052 33.8691 101.693 34.9862C101.334 36.1034 100.908 37.3643 100.416 38.7693C99.9232 40.174 99.3843 41.5874 98.799 43.0091C98.4796 43.8217 98.0405 44.8795 97.4815 46.1828C96.9226 47.4861 96.2841 48.764 95.5656 50.0166C94.847 51.2692 94.0553 52.344 93.1904 53.241C92.3253 54.138 91.4405 54.5867 90.5358 54.5867C90.1099 54.5867 89.7042 54.4683 89.3182 54.2311C88.9325 53.9942 88.6063 53.588 88.3403 53.0125C87.2757 50.7105 87.5951 45.6665 89.2983 37.8807C89.6709 36.2218 90.0501 34.6476 90.4359 33.1582C90.8219 31.6687 91.1612 30.4161 91.4539 29.4007C90.6821 29.773 89.7308 30.1369 88.5997 30.4922C87.4787 30.8446 86.312 31.0224 85.0995 31.0256C85.0922 31.0907 85.0813 31.1584 85.0668 31.2287C85.0401 31.2964 84.9337 31.6604 84.7474 32.3202C84.5612 32.9804 84.2951 33.8437 83.9492 34.9101C83.603 35.9763 83.1905 37.1865 82.7117 38.5408C82.2326 39.8948 81.6871 41.2828 81.075 42.7045C78.4403 48.9672 75.819 52.7587 73.211 54.079H73.1712C72.5059 54.4512 71.8537 54.6374 71.2151 54.6374H71.1352C70.1439 54.6374 69.2856 54.2311 68.567 53.4188C67.8684 52.6402 67.2763 51.5738 66.7974 50.2198C66.0721 48.1546 65.5864 45.3619 65.347 41.8413C64.8147 42.4507 64.2891 43.0345 63.7702 43.5932C63.2512 44.1516 62.7257 44.651 62.1936 45.091C61.6613 45.531 61.1024 45.8949 60.5168 46.1828C59.9315 46.4707 59.3061 46.6482 58.6408 46.7159C57.5231 46.7499 56.5515 46.2759 55.7267 45.2941C54.7951 44.1594 54.2106 42.3671 53.9728 39.9179C53.8176 40.3682 53.657 40.8232 53.491 41.2828C52.3466 44.2954 51.2289 46.6482 50.1377 48.3408C48.6207 50.6428 47.0905 51.7939 45.547 51.7939C44.5625 51.7939 43.7907 51.3536 43.2317 50.4736C42.8326 49.8642 42.5732 49.0686 42.4534 48.0869C42.3335 47.1052 42.307 46.0137 42.3736 44.8118C42.44 43.6099 42.5732 42.3153 42.7727 40.9273C42.9723 39.5392 43.1918 38.1175 43.4315 36.6618C43.6442 35.4095 43.8372 34.216 44.0102 33.0821C44.1831 31.948 44.3095 30.8902 44.3895 29.9084C44.4692 28.7236 44.476 27.8603 44.4094 27.3188C44.3428 26.7771 44.2431 26.4215 44.1099 26.2524C44.0567 26.1847 43.9903 26.1253 43.9103 26.0746C43.8306 26.0239 43.7108 25.9985 43.5511 25.9985C43.1255 25.9985 42.6529 26.2778 42.134 26.8362C41.615 27.3949 41.0496 28.385 40.4375 29.8067C39.8254 31.2287 39.1534 33.1498 38.4217 35.5703C37.6898 37.9907 36.8981 41.0457 36.0466 44.7357C35.9666 45.5143 35.6139 46.1067 34.9887 46.5127C34.3633 46.919 33.6912 47.1645 32.9726 47.2492C32.2541 47.3337 31.5956 47.2492 30.9967 46.9954C30.398 46.7412 30.0985 46.3436 30.0985 45.8019C30.0697 44.7372 30.0525 43.6949 30.0473 42.6752L29.9789 42.9584C29.5533 44.6847 29.1274 46.2082 28.7015 47.5285C28.2757 48.8488 27.8367 49.9826 27.3843 50.9306C26.852 52.1492 26.2265 53.0632 25.508 53.6727C24.7895 54.2821 24.0709 54.553 23.3657 54.4852C22.6538 54.4175 21.9885 54.0112 21.3698 53.2664C20.7578 52.5215 20.2852 51.4214 19.9658 49.9659C19.4804 48.0025 19.2009 45.3619 19.1209 42.0444C19.0944 40.6901 19.0944 39.3361 19.1209 37.9821C19.1284 37.5988 19.137 37.2266 19.1467 36.8649C18.8228 37.5092 18.4683 38.1694 18.083 38.8454C17.3912 39.9962 16.6328 41.1474 15.8078 42.2983C14.9828 43.4491 14.1045 44.5663 13.1731 45.6497C12.481 46.462 11.7827 47.2239 11.0773 47.9347C10.3721 48.6456 9.67349 49.2888 8.98169 49.8642C9.27436 50.3382 9.56045 50.8289 9.83976 51.3369C10.1193 51.8446 10.3787 52.4031 10.6183 53.0125C10.9642 53.8588 11.2768 54.7728 11.5564 55.7545C11.8359 56.7363 12.0685 57.7517 12.255 58.8011C12.6276 60.8663 12.8138 62.7957 12.8138 64.5898C12.8138 66.5532 12.6142 68.1444 12.2151 69.363C11.8424 70.3787 11.4234 71.0218 10.9576 71.2927C10.4919 71.5635 10.1127 71.699 9.81982 71.699C8.30301 71.699 7.02564 70.3447 5.98771 67.6367C5.58857 66.5872 5.21594 65.3516 4.87004 63.9299C4.52414 62.5079 4.20474 60.883 3.91185 59.055C3.72564 58.0396 3.57274 57.0071 3.4529 55.9577C3.33308 54.9082 3.20667 53.8588 3.0737 52.8094C2.2487 52.7754 1.55666 52.5215 0.997831 52.0478C0.33253 51.5061 0 50.7612 0 49.8135C0 49.1363 0.212929 48.4932 0.638566 47.8837C1.06443 47.2746 1.68986 46.8513 2.51486 46.6144L2.23534 41.6888C2.0224 37.3559 1.91593 33.1752 1.91593 29.1468C1.91593 25.1182 2.0224 21.4285 2.23534 18.077C2.47478 14.1841 2.86077 10.8497 3.3931 8.07364C3.97843 5.02704 4.75021 2.84373 5.70818 1.52344C6.42672 0.507713 7.23858 0 8.14332 0H8.18318C9.19438 0 10.0726 0.575431 10.8179 1.72659C11.6694 3.14831 12.2416 5.07775 12.5343 7.51521C12.7739 10.0541 12.6541 12.7114 12.175 15.4874C11.8291 17.6877 11.1638 19.8543 10.1791 21.9869C9.43404 23.6118 8.55581 25.1182 7.54461 26.5063C7.51788 28.9774 7.52468 31.5417 7.56455 34.1993C7.60442 36.8566 7.69096 39.5562 7.82392 42.2983C7.87715 42.9414 7.92382 43.7624 7.96368 44.7611C8.00355 45.7595 8.07672 46.8853 8.18319 48.1379C8.79525 47.5622 9.43405 46.953 10.0994 46.3099C10.7647 45.6664 11.4299 44.9556 12.0952 44.177C14.0114 41.9427 15.6413 39.6577 16.9852 37.3219C18.0748 35.4282 18.8715 33.657 19.3751 32.0079L19.4004 31.6601C19.4537 30.9662 19.4804 30.5853 19.4804 30.5176C19.5334 30.0776 19.8594 29.7644 20.4449 29.5782C21.0371 29.3921 21.6759 29.3667 22.3543 29.5021C23.0398 29.6373 23.665 29.9421 24.224 30.4162C24.7894 30.8899 25.0556 31.584 25.0291 32.498C25.0291 32.5317 24.9824 33.2089 24.8893 34.5292C24.796 35.8492 24.7362 37.6435 24.7097 39.9115C24.7097 45.7682 25.0422 48.8404 25.7075 49.128C26.3728 49.4155 27.2778 47.1732 28.422 42.3997C28.7414 41.012 29.0343 39.641 29.3002 38.2867C29.5664 36.9326 29.7859 35.7224 29.9589 34.656C30.0987 33.7944 30.2124 33.0599 30.3001 32.4525L30.3182 32.0664C30.3581 31.2371 30.378 30.8224 30.378 30.8224C30.4045 30.0776 30.7108 29.5529 31.2961 29.2483C31.8817 28.9437 32.5202 28.8506 33.2123 28.9691C33.9041 29.0875 34.5361 29.4007 35.1083 29.9084C35.6805 30.4162 35.9532 31.0933 35.9267 31.9396C35.9267 31.9733 35.9134 32.5827 35.8869 33.7676C35.8601 34.9525 35.8203 36.7295 35.767 39.0992C36.0864 37.8807 36.4258 36.6451 36.785 35.3925C37.1443 34.1399 37.5235 32.955 37.9226 31.8379C38.3485 30.653 38.761 29.6122 39.1601 28.7152C39.5593 27.8179 39.9718 27.048 40.3976 26.4048C40.7968 25.7614 41.3089 25.203 41.9344 24.7289C42.5598 24.2549 43.2185 23.908 43.9103 23.6882C44.6024 23.468 45.3075 23.4173 46.0261 23.5357C46.7446 23.6541 47.4099 23.9674 48.022 24.4751C48.6608 25.0505 49.153 25.8291 49.4989 26.8108C49.8451 27.7925 50.0179 28.8927 50.0179 30.1116C50.0179 31.3302 49.9114 32.6675 49.6985 34.1229C49.4858 35.5786 49.233 37.0511 48.9401 38.5408C48.5145 40.978 48.2614 42.9244 48.1817 44.3801C48.1019 45.8359 48.1883 46.6905 48.4411 46.9444C48.6941 47.1982 49.1197 46.8006 49.7186 45.7512C50.3173 44.7017 51.0957 42.9077 52.0539 40.3688C52.5063 39.1499 52.912 37.9567 53.2712 36.7888C53.5397 35.916 53.7823 35.1141 53.9988 34.3831C54.1857 32.7545 54.5484 31.3642 55.088 30.213C55.913 28.419 57.0041 27.3355 58.3612 26.9633C59.133 26.7601 59.9113 26.8108 60.6965 27.1157C61.4816 27.4203 62.26 27.962 63.0317 28.7406C63.8302 29.5528 64.5619 30.5853 65.2272 31.8379C65.3604 28.9944 65.5799 26.1169 65.8925 23.2058C66.1985 20.2943 66.6244 17.5016 67.1567 14.8273C67.935 10.6295 68.8332 7.29504 69.8512 4.82388C71.0554 1.84499 72.3593 0.253839 73.7699 0.0506925C74.6481 -0.0507375 75.3399 0.0846981 75.8455 0.45699C76.3513 0.829282 76.7371 1.21857 77.0033 1.62486C78.0677 3.48688 78.1875 6.90576 77.3625 11.8821C77.1496 13.1007 76.9034 14.3279 76.6241 15.5635C76.3445 16.7991 76.0453 18.0093 75.7259 19.1942C75.4065 20.379 75.0871 21.5045 74.7677 22.571C74.4485 23.6371 74.1425 24.6105 73.8496 25.4908C73.4772 26.6077 73.038 27.7842 72.5324 29.0197C72.0268 30.2553 71.4679 31.4993 70.8558 32.7519C70.8558 33.0567 70.8425 33.2766 70.8158 33.412C70.7627 34.9015 70.7426 36.4843 70.7559 38.1598C70.7693 39.8354 70.8225 41.4436 70.9157 42.9837C71.0088 44.5239 71.1619 45.9289 71.3748 47.1982C71.5875 48.4678 71.8804 49.4412 72.2528 50.118C72.6255 50.7952 73.0846 51.1084 73.6301 51.0574C74.1756 51.0067 74.8343 50.4229 75.6061 49.3057C76.9367 47.5114 78.294 44.9895 79.6778 41.7398C80.2632 40.3518 80.7955 38.9891 81.2746 37.6521C81.7535 36.3148 82.1594 35.13 82.492 34.0975C82.8247 33.0651 83.0841 32.2188 83.2705 31.5586L83.4889 30.7847C82.3567 30.4135 81.4189 29.6139 80.6759 28.385C79.7977 26.8955 79.3587 25.0845 79.3587 22.9516C79.3587 22.0716 79.4384 21.2337 79.5981 20.4381C79.7578 19.6428 79.9839 18.9403 80.2768 18.3309C81.0218 16.7737 81.9931 15.9951 83.1908 15.9951C83.9625 15.9951 84.5681 16.1899 85.0071 16.5792C85.4463 16.9685 85.7723 17.3491 85.9852 17.7217C86.8367 19.3803 86.9033 21.9869 86.1848 25.5415C86.0516 26.2184 85.9186 26.8532 85.7854 27.4456C85.6524 28.038 85.5194 28.5544 85.3863 28.9944C86.2912 28.9604 87.1692 28.825 88.021 28.5881C88.8725 28.3513 89.6243 28.0888 90.2762 27.8012C90.9284 27.5133 91.4605 27.2511 91.873 27.0139C92.2855 26.7771 92.4919 26.6587 92.4919 26.6587C92.5716 26.5909 92.7646 26.4979 93.0706 26.3792C93.3767 26.2607 93.7425 26.1593 94.1684 26.0746C94.5942 25.9899 95.0332 25.9392 95.4856 25.9222C95.9382 25.9054 96.3439 25.9562 96.7032 26.0746C97.0624 26.193 97.3286 26.3962 97.5017 26.684C97.6745 26.9716 97.6945 27.3862 97.5615 27.9279C97.5615 27.9279 97.4815 28.2072 97.322 28.7659C97.1623 29.3243 96.956 30.0775 96.7032 31.0256C96.4504 31.9733 96.1643 33.0567 95.8449 34.2753C95.5257 35.4939 95.2197 36.7805 94.9268 38.1345C94.235 41.2151 93.7559 43.6862 93.4897 45.548C93.2235 47.41 93.1837 48.5609 93.3701 49.0009C93.5563 49.4412 93.9754 49.1109 94.6276 48.0108C95.2795 46.9106 96.191 44.9388 97.3619 42.0951C97.9473 40.6734 98.4796 39.277 98.9587 37.906C99.4376 36.535 99.8569 35.2994 100.216 34.1992C100.575 33.0988 100.861 32.2104 101.074 31.5333C101.287 30.8561 101.394 30.5178 101.394 30.5178C101.474 30.247 101.613 30.0522 101.813 29.9338C102.012 29.8153 102.219 29.8067 102.431 29.9084ZM10.6183 15.0811C10.778 14.2349 10.8845 13.2785 10.9377 12.212C10.9907 11.1459 11.0041 10.1302 10.9776 9.16544C10.9509 8.20072 10.8845 7.36278 10.778 6.65191C10.6716 5.94105 10.5318 5.5094 10.3587 5.35726C10.1859 5.20483 9.98633 5.39933 9.76003 5.94106C9.53373 6.48277 9.27435 7.51522 8.98169 9.03866C8.71552 10.325 8.49602 11.772 8.32296 13.3802C8.14989 14.9881 7.99699 16.7567 7.86379 18.6865L7.62435 23.2058C8.23642 22.1224 8.81519 20.9038 9.36088 19.5498C9.90636 18.1955 10.3254 16.706 10.6183 15.0811ZM9.18125 53.9265C9.10129 53.7234 9.01476 53.5032 8.92165 53.2664C8.82856 53.0295 8.71552 52.7924 8.58232 52.5555C8.71552 53.7404 8.85528 54.9253 9.00162 56.1098C9.14795 57.2947 9.31422 58.4796 9.50065 59.6644C9.55366 60.003 9.63362 60.4684 9.74009 61.0608C9.84655 61.6532 9.96616 62.2627 10.0994 62.8888C10.2323 63.515 10.3655 64.0991 10.4985 64.6408C10.6315 65.1822 10.7513 65.5801 10.8578 65.834C10.9642 66.0879 11.0508 66.1386 11.1174 65.9864C11.1837 65.834 11.217 65.3686 11.217 64.5898C11.217 62.8295 11.0374 60.9931 10.6781 59.0804C10.3189 57.1679 9.81982 55.45 9.18125 53.9265ZM1.87607 50.3719C2.00927 50.4736 2.1556 50.5497 2.3153 50.6004C2.47478 50.6514 2.6612 50.7105 2.87414 50.7782L2.67458 48.6456C2.30194 48.781 2.02921 48.9585 1.85614 49.1787C1.68308 49.3988 1.59677 49.6103 1.59677 49.8135C1.59677 49.9489 1.62984 50.059 1.69644 50.1434C1.76304 50.2281 1.82284 50.3042 1.87607 50.3719ZM59.439 37.9314C59.439 39.9625 59.5722 41.4013 59.8382 42.2476C60.1043 43.0938 60.4903 43.4915 60.9959 43.4408C61.5015 43.3901 62.107 42.9668 62.8122 42.1712C63.5174 41.3759 64.3091 40.3518 65.1873 39.0992C65.1608 38.5575 65.1474 38.0075 65.1474 37.449C65.1474 36.8903 65.1474 36.3235 65.1474 35.7478C64.828 35.1386 64.4821 34.3938 64.1095 33.5138C63.7369 32.6335 63.3377 31.9142 62.9121 31.3555C62.4862 30.7971 62.0404 30.5516 61.5747 30.6193C61.109 30.687 60.6367 31.3642 60.1576 32.6505C59.6787 34.0722 59.439 35.8325 59.439 37.9314ZM75.7658 11.4251C76.1117 9.42795 76.318 7.95521 76.3844 7.00749C76.451 6.05948 76.4177 5.51805 76.2847 5.38262C76.1515 5.24719 75.9454 5.43333 75.6659 5.94106C75.3866 6.44877 75.0805 7.15964 74.7478 8.07365C74.4152 8.98766 74.0892 10.0371 73.7698 11.222C73.4504 12.4068 73.1711 13.5917 72.9315 14.7766C72.5059 16.8077 72.1398 18.9487 71.8338 21.2C71.5277 23.451 71.2815 25.7277 71.0953 28.0297C71.3347 27.454 71.5545 26.8956 71.754 26.3538C71.9536 25.8124 72.1466 25.2707 72.3328 24.729C72.599 23.8827 72.8916 22.9263 73.211 21.8601C73.5304 20.7937 73.8496 19.6849 74.169 18.534C74.4884 17.3832 74.7811 16.2067 75.0472 15.0051C75.3134 13.8032 75.5528 12.61 75.7658 11.4251ZM84.6677 25.0845C84.7477 24.712 84.834 24.0858 84.9273 23.2058C85.0204 22.3255 85.0469 21.4622 85.007 20.6159C84.9672 19.7696 84.814 19.0671 84.5481 18.5087C84.2819 17.9502 83.8296 17.7895 83.1908 18.0263C82.7916 18.1617 82.4922 18.517 82.2926 19.0928C82.093 19.6682 81.9666 20.345 81.9134 21.1236C81.8602 21.9025 81.8801 22.7318 81.9732 23.6118C82.0663 24.4921 82.1995 25.3044 82.3723 26.0493C82.5454 26.7941 82.7518 27.4203 82.9912 27.928C83.2306 28.4357 83.4834 28.7066 83.7496 28.7406C83.8828 28.3343 84.0291 27.8095 84.1888 27.1664C84.3483 26.5233 84.508 25.8291 84.6677 25.0845Z" fill="white"/>
<defs>
<linearGradient id="paint0_linear_169_82" x1="19.1235" y1="14.0234" x2="13.7595" y2="19.8639" gradientUnits="userSpaceOnUse">
<stop stop-color="#FE316D"/>
<stop offset="1" stop-color="#FEAF56"/>
</linearGradient>
</defs>
</svg>
